<svg xmlns="http://www.w3.org/2000/svg" viewBox="0 0 1600 900" role="img" aria-label="Illustration of a golden retriever resting on a cozy bed beside a laptop">
  <defs>
    <linearGradient id="bg" x1="0" y1="0" x2="1" y2="1">
      <stop offset="0%" stop-color="#fff7ed"/>
      <stop offset="45%" stop-color="#fef3c7"/>
      <stop offset="100%" stop-color="#ede9fe"/>
    </linearGradient>
    <linearGradient id="blanket" x1="0" y1="0" x2="1" y2="1">
      <stop offset="0%" stop-color="#f9a8d4"/>
      <stop offset="100%" stop-color="#c4b5fd"/>
    </linearGradient>
    <linearGradient id="fur" x1="0" y1="0" x2="0.9" y2="1">
      <stop offset="0%" stop-color="#fbbf24"/>
      <stop offset="100%" stop-color="#d97706"/>
    </linearGradient>
    <linearGradient id="furLight" x1="0" y1="0" x2="1" y2="1">
      <stop offset="0%" stop-color="#fde68a"/>
      <stop offset="100%" stop-color="#fcd34d"/>
    </linearGradient>
    <filter id="shadow" x="-20%" y="-20%" width="140%" height="140%">
      <feDropShadow dx="0" dy="18" stdDeviation="24" flood-color="#7c2d12" flood-opacity="0.18"/>
    </filter>
  </defs>

  <rect width="1600" height="900" fill="url(#bg)"/>
  <circle cx="1280" cy="130" r="84" fill="#fff7ed" opacity="0.85"/>
  <circle cx="1310" cy="120" r="58" fill="#fde68a" opacity="0.5"/>

  <rect x="110" y="170" width="280" height="120" rx="28" fill="#ffffff" opacity="0.55"/>
  <rect x="1220" y="650" width="220" height="90" rx="28" fill="#ffffff" opacity="0.45"/>

  <g filter="url(#shadow)">
    <rect x="180" y="470" width="1240" height="220" rx="110" fill="#fffaf5"/>
    <rect x="210" y="510" width="1180" height="140" rx="70" fill="url(#blanket)"/>
    <rect x="280" y="370" width="300" height="140" rx="52" fill="#fffaf5"/>
    <rect x="1040" y="395" width="250" height="115" rx="42" fill="#fffaf5"/>
  </g>

  <g transform="translate(470 245)">
    <rect x="0" y="0" width="250" height="160" rx="18" fill="#334155"/>
    <rect x="16" y="16" width="218" height="126" rx="10" fill="#0f172a"/>
    <circle cx="125" cy="80" r="18" fill="#94a3b8" opacity="0.85"/>
    <rect x="-26" y="160" width="302" height="16" rx="8" fill="#475569"/>
  </g>

  <g transform="translate(470 190)" filter="url(#shadow)">
    <ellipse cx="340" cy="350" rx="290" ry="168" fill="url(#fur)"/>
    <ellipse cx="492" cy="244" rx="170" ry="138" fill="url(#fur)"/>
    <ellipse cx="514" cy="284" rx="108" ry="82" fill="url(#furLight)"/>

    <path d="M394 164c-76-80-151-58-169 26 12 68 78 98 138 76" fill="url(#fur)"/>
    <path d="M611 140c88-70 160-28 145 63-23 67-84 91-140 69" fill="url(#fur)"/>
    <path d="M403 178c-47-60-102-40-113 23 8 45 45 71 94 57" fill="#d97706" opacity="0.45"/>
    <path d="M626 164c57-49 108-27 104 32-8 43-40 67-89 57" fill="#d97706" opacity="0.42"/>

    <ellipse cx="498" cy="255" rx="32" ry="25" fill="#1f2937"/>
    <circle cx="447" cy="230" r="14" fill="#111827"/>
    <circle cx="569" cy="228" r="14" fill="#111827"/>
    <circle cx="442" cy="224" r="4.6" fill="#ffffff"/>
    <circle cx="564" cy="222" r="4.6" fill="#ffffff"/>
    <path d="M456 302c34 28 64 39 95 39 30 0 58-10 92-37" fill="none" stroke="#7c2d12" stroke-width="13" stroke-linecap="round"/>
    <path d="M463 317c22 14 43 21 66 21 23 0 44-7 68-22" fill="none" stroke="#ffffff" stroke-width="6" stroke-linecap="round" opacity="0.42"/>

    <ellipse cx="292" cy="438" rx="72" ry="35" fill="#b45309" opacity="0.95"/>
    <ellipse cx="431" cy="472" rx="76" ry="37" fill="#b45309" opacity="0.98"/>
    <ellipse cx="915" cy="360" rx="118" ry="28" fill="#d97706" transform="rotate(18 915 360)"/>
    <ellipse cx="970" cy="384" rx="72" ry="19" fill="#fbbf24" opacity="0.95" transform="rotate(18 970 384)"/>
    <path d="M882 339c67-56 133-14 144 45" fill="none" stroke="#d97706" stroke-width="24" stroke-linecap="round"/>
  </g>

  <g opacity="0.22" fill="#ffffff">
    <circle cx="320" cy="188" r="6"/>
    <circle cx="354" cy="220" r="4"/>
    <circle cx="1305" cy="240" r="5"/>
    <circle cx="1260" cy="284" r="3.5"/>
    <circle cx="1186" cy="136" r="4.5"/>
  </g>
</svg>
